<?xml version="1.0" encoding="utf-8"?>
<!-- Generator: Adobe Illustrator 25.4.0, SVG Export Plug-In . SVG Version: 6.00 Build 0)  -->
<svg version="1.1" id="Layer_1" xmlns="http://www.w3.org/2000/svg" xmlns:xlink="http://www.w3.org/1999/xlink" x="0px" y="0px"
	 viewBox="0 0 566.929 566.929" enable-background="new 0 0 566.929 566.929" xml:space="preserve">
<g transform="matrix(1, 0, 0, 1, 0, 0)">
	<g enable-background="new    ">
		<path fill="#E1E554" d="M-184.874,312.713h-24.425l-15.427-31.875h-21.912v31.875h-21.998v-90.465h49.44
			c6.679,0,12.343,1.218,16.836,3.62c4.545,2.431,7.995,5.883,10.252,10.261c2.226,4.322,3.354,9.336,3.354,14.904
			c0,5.938-1.355,11.275-4.029,15.863c-2.445,4.199-5.929,7.528-10.369,9.914L-184.874,312.713z M-207.418,309.713h17.65
			l-17.44-34.257l1.395-0.661c4.544-2.153,8.057-5.318,10.438-9.408c2.403-4.125,3.621-8.954,3.621-14.354
			c0-5.085-1.017-9.638-3.021-13.53c-1.973-3.827-5.001-6.852-9-8.99c-4.053-2.167-9.241-3.265-15.421-3.265h-46.44v84.465h15.998
			v-31.875h26.793L-207.418,309.713z M-221.746,265.793h-27.893v-28.117h27.893c2.867,0,5.332,0.529,7.326,1.573
			c2.056,1.079,3.644,2.689,4.719,4.789c1.041,2.037,1.567,4.476,1.567,7.25c0,4.361-1.204,7.896-3.578,10.508
			C-214.122,264.448-217.498,265.793-221.746,265.793z M-246.638,262.793h24.893c3.414,0,5.971-0.986,7.815-3.015
			c1.856-2.042,2.797-4.898,2.797-8.49c0-2.295-0.417-4.275-1.238-5.884c-0.798-1.557-1.924-2.702-3.441-3.498
			c-1.56-0.816-3.556-1.23-5.933-1.23h-24.893V262.793z"/>
		<path fill="#E1E554" d="M-101.926,312.713h-73.635v-90.465h72.87v18.555h-50.745v16.508h44.88v18.428h-44.88v18.292h51.51V312.713
			z M-172.562,309.713h67.635V297.03h-51.51v-24.292h44.88v-12.428h-44.88v-22.508h50.745v-12.555h-66.87V309.713z"/>
		<path fill="#E1E554" d="M-40.283,312.713h-24.289l-32.705-90.465h23.742l19.214,56.865c0.333,0.92,0.721,2.062,1.153,3.396
			c0.424,1.316,0.846,2.605,1.271,3.875c0.014,0.043,0.028,0.086,0.042,0.129c0.371-1.197,0.743-2.416,1.114-3.654
			c0.384-1.279,0.746-2.472,1.087-3.581l19.226-57.031h22.98L-40.283,312.713z M-62.466,309.713h20.081l30.659-84.465h-16.545
			L-46.797,280.2c-0.328,1.065-0.688,2.251-1.069,3.521c-0.383,1.28-0.768,2.54-1.151,3.775c-0.377,1.218-0.75,2.334-1.106,3.318
			l-0.358,0.988h-2.988l-0.284-1.136c-0.242-0.969-0.575-2.09-0.988-3.333c-0.427-1.278-0.854-2.579-1.279-3.903
			c-0.42-1.295-0.797-2.405-1.13-3.329l-18.536-54.854h-17.314L-62.466,309.713z"/>
		<path fill="#E1E554" d="M40.266,314.243c-9.455,0-17.744-1.726-24.635-5.128c-6.972-3.442-12.385-8.72-16.088-15.686
			c-3.67-6.901-5.531-15.632-5.531-25.949c0-10.485,1.861-19.281,5.532-26.144c3.706-6.925,9.121-12.16,16.093-15.558
			c6.891-3.358,15.177-5.061,24.628-5.061c9.617,0,17.968,1.703,24.82,5.062c6.932,3.399,12.323,8.633,16.026,15.556
			c3.671,6.863,5.533,15.659,5.533,26.144c0,10.317-1.861,19.048-5.531,25.949c-3.7,6.963-9.089,12.24-16.02,15.685
			C58.24,312.518,49.887,314.243,40.266,314.243z M40.266,223.718c-8.992,0-16.836,1.601-23.313,4.758
			c-6.394,3.116-11.36,7.919-14.762,14.276c-3.436,6.423-5.178,14.743-5.178,24.729c0,9.82,1.743,18.077,5.179,24.541
			c3.402,6.399,8.371,11.246,14.768,14.404c6.475,3.196,14.316,4.817,23.307,4.817c9.154,0,17.058-1.62,23.493-4.816
			c6.357-3.159,11.306-8.006,14.706-14.405c3.438-6.464,5.18-14.72,5.18-24.541c0-9.986-1.742-18.306-5.178-24.729
			c-3.4-6.357-8.346-11.161-14.701-14.278C57.328,225.318,49.421,223.718,40.266,223.718z M40.266,298.688
			c-4.249,0-8.074-0.633-11.369-1.882c-3.358-1.269-6.216-3.207-8.494-5.759c-2.259-2.529-3.973-5.654-5.095-9.29
			c-1.102-3.57-1.661-7.687-1.661-12.236v-3.952c0-4.631,0.558-8.811,1.659-12.423c1.123-3.682,2.841-6.812,5.106-9.305
			c2.276-2.503,5.13-4.416,8.485-5.686c3.3-1.249,7.125-1.882,11.369-1.882c4.324,0,8.192,0.633,11.495,1.882
			c3.356,1.272,6.21,3.185,8.484,5.686c2.263,2.492,4,5.617,5.166,9.289c1.146,3.62,1.727,7.804,1.727,12.439v3.952
			c0,4.553-0.582,8.675-1.728,12.252c-1.164,3.626-2.898,6.746-5.155,9.274c-2.276,2.55-5.134,4.488-8.493,5.76
			C48.462,298.055,44.595,298.688,40.266,298.688z M40.266,239.272c-3.88,0-7.348,0.568-10.307,1.688
			c-2.908,1.101-5.373,2.749-7.327,4.898c-1.965,2.161-3.464,4.907-4.457,8.162c-1.014,3.328-1.528,7.213-1.528,11.548v3.952
			c0,4.25,0.514,8.069,1.527,11.352c0.994,3.221,2.497,5.972,4.467,8.177c1.954,2.188,4.416,3.854,7.318,4.951
			c2.956,1.12,6.424,1.688,10.308,1.688c3.964,0,7.475-0.567,10.434-1.688c2.903-1.099,5.364-2.765,7.316-4.951
			c1.975-2.213,3.501-4.97,4.537-8.193c1.051-3.279,1.584-7.094,1.584-11.335v-3.952c0-4.327-0.534-8.207-1.586-11.533
			c-1.033-3.257-2.556-6.008-4.526-8.178c-1.953-2.147-4.417-3.795-7.326-4.897C47.737,239.84,44.227,239.272,40.266,239.272z"/>
		<path fill="#E1E554" d="M165.185,312.713H99.073v-90.465h21.997v71.272h44.115V312.713z M102.073,309.713h60.112v-13.192H118.07
			v-71.272h-15.997V309.713z"/>
		<path fill="#E1E554" d="M209.331,314.243c-8.163,0-15.296-1.33-21.201-3.954c-6.001-2.667-10.669-6.753-13.876-12.144
			c-3.186-5.353-4.801-12.067-4.801-19.955v-55.942h22.125v55.433c0,5.852,1.527,10.366,4.54,13.417
			c3.006,3.046,7.451,4.59,13.213,4.59c5.764,0,10.233-1.547,13.283-4.597c3.05-3.051,4.597-7.562,4.597-13.41v-55.433h22.125
			v55.942c0,7.888-1.615,14.603-4.801,19.955c-3.207,5.391-7.875,9.477-13.876,12.144
			C224.754,312.913,217.579,314.243,209.331,314.243z M172.453,225.248v52.942c0,7.341,1.473,13.538,4.379,18.422
			c2.883,4.846,7.094,8.525,12.517,10.935c5.519,2.453,12.242,3.696,19.982,3.696c7.826,0,14.591-1.243,20.109-3.696
			c5.422-2.409,9.633-6.089,12.517-10.935c2.906-4.884,4.379-11.081,4.379-18.422v-52.942H230.21v52.433
			c0,6.673-1.842,11.898-5.476,15.531c-3.633,3.634-8.816,5.476-15.404,5.476c-6.594,0-11.758-1.845-15.348-5.482
			c-3.586-3.632-5.405-8.855-5.405-15.524v-52.433H172.453z"/>
		<path fill="#E1E554" d="M309.003,312.713h-22.125v-71.527h-28.049v-18.938h78.352v18.938h-28.178V312.713z M289.878,309.713
			h16.125v-71.527h28.178v-12.938h-72.352v12.938h28.049V309.713z"/>
		<path fill="#E1E554" d="M369.055,312.713h-21.997v-90.465h21.997V312.713z M350.058,309.713h15.997v-84.465h-15.997V309.713z"/>
		<path fill="#E1E554" d="M427.733,314.243c-9.454,0-17.742-1.726-24.635-5.128c-6.973-3.442-12.385-8.72-16.087-15.686
			c-3.67-6.901-5.531-15.632-5.531-25.949c0-10.485,1.861-19.281,5.533-26.144c3.704-6.925,9.118-12.16,16.092-15.558
			c6.892-3.358,15.178-5.061,24.628-5.061c9.618,0,17.969,1.703,24.821,5.062c6.93,3.399,12.322,8.633,16.025,15.556
			c3.672,6.863,5.533,15.659,5.533,26.144c0,10.317-1.861,19.048-5.531,25.949c-3.701,6.964-9.091,12.241-16.02,15.685
			C445.709,312.518,437.355,314.243,427.733,314.243z M427.733,223.718c-8.991,0-16.835,1.601-23.313,4.758
			c-6.395,3.116-11.36,7.919-14.762,14.276c-3.436,6.423-5.178,14.743-5.178,24.729c0,9.821,1.743,18.077,5.18,24.541
			c3.401,6.399,8.369,11.245,14.767,14.404c6.476,3.196,14.317,4.817,23.307,4.817c9.154,0,17.06-1.62,23.494-4.816
			c6.356-3.158,11.305-8.005,14.706-14.405c3.437-6.464,5.18-14.72,5.18-24.541c0-9.986-1.742-18.306-5.178-24.729
			c-3.401-6.357-8.348-11.161-14.701-14.278C444.796,225.318,436.89,223.718,427.733,223.718z M427.733,298.688
			c-4.247,0-8.072-0.633-11.369-1.882c-3.359-1.27-6.217-3.208-8.493-5.759c-2.259-2.529-3.974-5.654-5.096-9.29
			c-1.102-3.566-1.66-7.683-1.66-12.236v-3.952c0-4.634,0.559-8.814,1.659-12.423c1.122-3.682,2.841-6.812,5.105-9.305
			c2.274-2.502,5.129-4.415,8.484-5.686c3.301-1.249,7.126-1.882,11.369-1.882c4.325,0,8.192,0.633,11.495,1.882
			c3.354,1.271,6.209,3.184,8.484,5.686c2.263,2.491,4,5.616,5.165,9.289c1.146,3.622,1.728,7.807,1.728,12.439v3.952
			c0,4.551-0.582,8.673-1.729,12.252c-1.165,3.627-2.899,6.747-5.154,9.274c-2.278,2.551-5.136,4.489-8.493,5.76
			C435.931,298.055,432.062,298.688,427.733,298.688z M427.733,239.272c-3.879,0-7.347,0.568-10.307,1.688
			c-2.909,1.102-5.374,2.75-7.326,4.898c-1.965,2.162-3.465,4.908-4.457,8.162c-1.014,3.325-1.528,7.21-1.528,11.548v3.952
			c0,4.252,0.514,8.072,1.527,11.351c0.993,3.221,2.496,5.972,4.467,8.177c1.951,2.188,4.413,3.854,7.316,4.951
			c2.957,1.12,6.425,1.688,10.308,1.688c3.966,0,7.476-0.567,10.434-1.688c2.902-1.098,5.364-2.764,7.317-4.951
			c1.975-2.212,3.5-4.969,4.536-8.193c1.052-3.282,1.585-7.096,1.585-11.335v-3.952c0-4.325-0.534-8.205-1.587-11.533
			c-1.034-3.258-2.557-6.009-4.525-8.178c-1.954-2.147-4.419-3.796-7.326-4.897C435.205,239.84,431.694,239.272,427.733,239.272z"/>
		<path fill="#E1E554" d="M566.296,312.713h-19.722l-36.404-48.927c-0.854-1.193-1.74-2.499-2.651-3.906v52.833h-20.978v-90.465
			h19.719l35.611,47.739c0.529,0.622,1.188,1.478,1.956,2.545c0.508,0.705,1.007,1.415,1.491,2.123v-52.407h20.978V312.713z
			 M548.082,309.713h15.214v-84.465h-14.978v55.207h-3.126l-0.39-0.908c-0.149-0.348-0.491-1.009-1.273-2.183
			c-0.68-1.019-1.399-2.055-2.137-3.079c-0.735-1.022-1.354-1.826-1.834-2.388l-0.062-0.078l-34.74-46.572h-15.215v84.465h14.978
			v-55.59h3.02l0.429,0.771c0.416,0.75,1.085,1.835,1.987,3.227c0.916,1.418,1.804,2.729,2.639,3.896L548.082,309.713z"/>
		<path fill="#E1E554" d="M604.673,312.713h-21.997v-90.465h21.997V312.713z M585.676,309.713h15.997v-84.465h-15.997V309.713z"/>
		<path fill="#E1E554" d="M656.595,314.243c-5.183,0-10.183-0.527-14.86-1.566c-4.743-1.053-9.002-2.772-12.658-5.109
			c-3.716-2.37-6.669-5.416-8.778-9.054c-2.122-3.656-3.198-8.135-3.198-13.311v-1.339c0-0.64,0.067-1.151,0.207-1.563l0.344-1.021
			h22.036l-0.668,1.979c-0.005,0.015-0.049,0.158-0.049,0.542v1.147c0,2.395,0.623,4.341,1.905,5.95
			c1.294,1.628,3.263,2.878,5.854,3.714c2.725,0.884,5.957,1.331,9.611,1.331c2.384,0,4.516-0.145,6.335-0.429
			c1.805-0.28,3.422-0.684,4.808-1.199c1.337-0.496,2.445-1.085,3.296-1.751c0.794-0.622,1.359-1.316,1.729-2.122
			c0.374-0.819,0.564-1.769,0.564-2.817c0-1.888-0.581-3.37-1.777-4.534c-1.339-1.299-3.231-2.436-5.623-3.376
			c-2.524-0.993-5.406-1.919-8.566-2.751l-9.944-2.613c-3.461-0.908-6.869-2.044-10.131-3.377c-3.326-1.355-6.352-3.024-8.99-4.96
			c-2.722-1.993-4.929-4.567-6.559-7.647c-1.638-3.093-2.469-6.847-2.469-11.157c0-4.585,0.99-8.614,2.944-11.974
			c1.943-3.346,4.711-6.14,8.225-8.302c3.438-2.116,7.452-3.701,11.931-4.711c4.429-0.998,9.302-1.503,14.482-1.503
			c4.844,0,9.504,0.506,13.851,1.505c4.401,1.012,8.341,2.648,11.709,4.862c3.414,2.248,6.128,5.123,8.067,8.546
			c1.948,3.446,2.936,7.555,2.936,12.215v3.029H671.67v-2.52c0-1.946-0.553-3.548-1.688-4.9c-1.187-1.407-2.91-2.548-5.122-3.388
			c-2.286-0.866-5.024-1.305-8.137-1.305c-3.42,0-6.354,0.326-8.724,0.968c-2.241,0.608-3.947,1.486-5.07,2.609
			c-1.033,1.034-1.536,2.209-1.536,3.593c0,1.606,0.564,2.886,1.726,3.913c1.342,1.192,3.243,2.255,5.653,3.163
			c2.521,0.951,5.398,1.811,8.552,2.558c3.212,0.76,6.575,1.623,9.996,2.563c3.447,0.95,6.845,2.082,10.099,3.367
			c3.34,1.318,6.375,2.992,9.02,4.977c2.71,2.032,4.909,4.575,6.536,7.558c1.645,3.014,2.479,6.644,2.479,10.791
			c0,7.029-1.739,12.79-5.169,17.123c-3.402,4.297-8.1,7.465-13.962,9.417C670.581,313.273,663.943,314.243,656.595,314.243z
			 M620.1,284.28v0.923c0,4.641,0.939,8.612,2.793,11.806c1.866,3.219,4.49,5.92,7.798,8.03c3.36,2.148,7.295,3.732,11.694,4.71
			c4.465,0.991,9.246,1.494,14.21,1.494c7.025,0,13.344-0.918,18.779-2.729c5.298-1.765,9.523-4.603,12.558-8.434
			c2.999-3.789,4.521-8.924,4.521-15.261c0-3.639-0.711-6.786-2.111-9.354c-1.421-2.603-3.339-4.821-5.704-6.594
			c-2.43-1.824-5.229-3.366-8.32-4.586c-3.154-1.245-6.449-2.344-9.793-3.265c-3.386-0.931-6.714-1.784-9.892-2.537
			c-3.277-0.775-6.278-1.673-8.918-2.669c-2.755-1.037-4.971-2.291-6.586-3.725c-1.814-1.605-2.735-3.677-2.735-6.158
			c0-2.189,0.812-4.111,2.415-5.714c1.498-1.498,3.653-2.636,6.406-3.383c2.624-0.712,5.823-1.073,9.509-1.073
			c3.477,0,6.572,0.504,9.201,1.5c2.695,1.025,4.832,2.458,6.353,4.261c1.492,1.774,2.292,3.909,2.385,6.352l15.496-0.029
			c0-4.136-0.856-7.749-2.547-10.737c-1.702-3.005-4.093-5.535-7.105-7.518c-3.067-2.017-6.679-3.512-10.731-4.444
			c-4.127-0.948-8.561-1.429-13.179-1.429c-4.96,0-9.61,0.481-13.822,1.43c-4.155,0.937-7.862,2.397-11.019,4.339
			c-3.087,1.9-5.511,4.34-7.203,7.254c-1.685,2.896-2.538,6.418-2.538,10.466c0,3.815,0.714,7.097,2.12,9.753
			c1.417,2.677,3.328,4.908,5.682,6.632c2.441,1.792,5.25,3.339,8.349,4.602c3.143,1.284,6.426,2.378,9.76,3.254l9.945,2.613
			c3.274,0.862,6.269,1.825,8.901,2.86c2.764,1.087,4.99,2.438,6.616,4.017c1.783,1.735,2.687,3.985,2.687,6.686
			c0,1.482-0.281,2.85-0.837,4.066c-0.567,1.236-1.444,2.323-2.607,3.234c-1.095,0.857-2.475,1.599-4.1,2.202
			c-1.574,0.586-3.389,1.04-5.392,1.352c-1.971,0.308-4.259,0.464-6.797,0.464c-3.969,0-7.513-0.497-10.535-1.477
			c-3.161-1.021-5.61-2.603-7.277-4.7c-1.697-2.131-2.558-4.762-2.558-7.818v-0.668H620.1z"/>
		<path fill="#E1E554" d="M781.259,312.713h-73.635v-90.465h72.869v18.555h-50.744v16.508h44.88v18.428h-44.88v18.292h51.51V312.713
			z M710.624,309.713h67.635V297.03h-51.51v-24.292h44.88v-12.428h-44.88v-22.508h50.744v-12.555h-66.869V309.713z"/>
	</g>
</g>
</svg>
